# AST/ASF file generated using VICON BodyLanguage
# -----------------------------------------------
:version 1.10
:name VICON
:units
  mass 1.0
  length 0.45
  angle deg
:documentation
   .ast/.asf automatically generated from VICON data using
   VICON BodyBuilder and BodyLanguage model FoxedUp or BRILLIANT.MOD
:root
   order TX TY TZ RX RY RZ
   axis XYZ
   position 0 0 0  
   orientation 0 0 0 
:bonedata
  begin
     id 1 
     name lhipjoint
     direction 0.623529 -0.717805 0.309788 
     length 2.23224 
     axis 0 0 0  XYZ
  end
  begin
     id 2 
     name lfemur
     direction 0.34202 -0.939693 0  
     length 7.11402  
     axis 0 0 20  XYZ
    dof rx ry rz
    limits (-160.0 20.0)
           (-70.0 70.0)
           (-60.0 70.0)
  end
  begin
     id 3 
     name ltibia
     direction 0.34202 -0.939693 0   
     length 6.78496   
     axis 0 0 20   XYZ
    dof rx
    limits (-10.0 170.0)
  end
  begin
     id 4 
     name lfoot
     direction 0.125078 -0.343648 0.930732   
     length 1.84054   
     axis -90 7.62852e-016 20   XYZ
    dof rx rz
    limits (-45.0 90.0)
           (-70.0 20.0)
  end
  begin
     id 5 
     name ltoes
     direction 1.53565e-011 -4.21893e-011 1   
     length 0.916474   
     axis -90 7.62852e-016 20   XYZ
    dof rx
    limits (-90.0 20.0)
  end
  begin
     id 6 
     name rhipjoint
     direction -0.564688 -0.757748 0.327026   
     length 2.11457  
     axis 0 0 0  XYZ 
  end
  begin
     id 7 
     name rfemur
     direction -0.34202 -0.939693 0   
     length 7.14609   
     axis 0 0 -20   XYZ
    dof rx ry rz
    limits (-160.0 20.0)
           (-70.0 70.0)
           (-70.0 60.0)
  end
  begin
     id 8 
     name rtibia
     direction -0.34202 -0.939693 0   
     length 6.78101   
     axis 0 0 -20   XYZ
    dof rx
    limits (-10.0 170.0)
 end
 begin
     id 9 
     name rfoot
     direction -0.0992671 -0.272734 0.956955   
     length 1.96168  
     axis -90 -7.62852e-016 -20   XYZ
    dof rx rz
    limits (-45.0 90.0)
           (-20.0 70.0)
  end
  begin
     id 10 
     name rtoes
     direction -1.5356e-011 -4.21891e-011 1   
     length 0.982933   
     axis -90 -7.62852e-016 -20   XYZ
    dof rx
    limits (-90.0 20.0)
  end
  begin
     id 11 
     name lowerback
     direction -0.00596953 0.998668 0.0512524   
     length 1.87557   
     axis 0 0 0   XYZ
    dof rx ry rz
    limits (-20.0 45.0)
           (-30.0 30.0)
           (-30.0 30.0)
  end
  begin
     id 12 
     name upperback
     direction 0.00584879 0.999652 0.0257308   
     length 1.87883   
     axis 0 0 0   XYZ
    dof rx ry rz
    limits (-20.0 45.0)
           (-30.0 30.0)
           (-30.0 30.0)
  end
  begin
     id 13 
     name thorax
     direction 0.010104 0.999947 0.00178881   
     length 1.87779   
     axis 0 0 0   XYZ
    dof rx ry rz
    limits (-20.0 45.0)
           (-30.0 30.0)
           (-30.0 30.0)
  end
  begin
     id 14 
     name lowerneck
     direction 0.0120771 0.995934 -0.0892773   
     length 1.40897   
     axis 0 0 0   XYZ
    dof rx ry rz
    limits (-20.0 45.0)
           (-30.0 30.0)
           (-30.0 30.0)
  end
  begin
     id 15 
     name upperneck
     direction -0.030568 0.999465 -0.0116366   
     length 1.38661   
     axis 0 0 0   XYZ
    dof rx ry rz
    limits (-20.0 45.0)
           (-30.0 30.0)
           (-30.0 30.0)
  end
  begin
     id 16
     name head
     direction -0.0170715 0.999854 -0.00104426  
     length 1.47052  
     axis 0 0 0   XYZ
    dof rx ry rz
    limits (-20.0 45.0)
           (-30.0 30.0)
           (-30.0 30.0)
  end
  begin
     id 17 
     name lclavicle
     direction 0.977763 0.206143 0.038532  
     length 3.02424  
     axis 0 0 0   XYZ
    dof ry rz
    limits (-20.0 10.0)
           (0.0 20.0)
  end
  begin
     id 18 
     name lhumerus
     direction 1 -4.48965e-011 -2.62654e-027   
     length 4.68382   
     axis 180 -30 -90   XYZ
    dof rx ry rz
    limits (-60.0 90.0)
           (-90.0 90.0)
           (-90.0 90.0)
  end
  begin
     id 19
     name lradius
     direction 1 -4.48973e-011 -1.54954e-027   
     length 2.98124   
     axis 180 -30 -90   XYZ
    dof rx
    limits (-10.0 170.0)
  end
  begin
     id 20
     name lwrist
     direction 1 -4.48959e-011 7.20928e-028   
     length 1.49062   
     axis -5.52449e-016 90 90   XYZ
    dof ry
    limits (-180.0 0.0)
 end
  begin
     id 21 
     name lhand
     direction 1 -4.48971e-011 1.44186e-027   
     length 0.707595   
     axis -9.20027e-016 90 90   XYZ
    dof rx rz
    limits (-90.0 90.0)
           (-45.0 45.0)
  end
  begin
     id 22 
     name lfingers
     direction 1 -4.48985e-011 2.88371e-027   
     length 0.570481   
     axis -1.84005e-015 90 90   XYZ
    dof rx
    limits (0.0 90.0)
  end
  begin
     id 23
     name lthumb
     direction 0.707107 -6.34929e-011 0.707107   
     length 0.819101   
     axis -90 45 2.85299e-015   XYZ
    dof rx rz
    limits (-45.0 45.0)
           (-45.0 45.0)
  end
  begin
     id 24 
     name rclavicle
     direction -0.958661 0.284411 -0.00895327   
     length 3.11921  
     axis 0 0 0   XYZ 
    dof ry rz
    limits (-10.0 20.0)
           (-20.0 0.0)
  end
  begin
     id 25 
     name rhumerus
     direction -1 -4.48963e-011 -4.22193e-027  
     length 4.75876   
     axis 180 30 90   XYZ
    dof rx ry rz
    limits (-90.0 60.0)
           (-90.0 90.0)
           (-90.0 90.0)
  end
  begin
     id 26 
     name rradius
     direction -1 -4.48968e-011 -1.07616e-027   
     length 2.93293   
     axis 180 30 90   XYZ
    dof rx
    limits (-10.0 170.0)
  end
  begin
     id 27 
     name rwrist
     direction -1 -4.48965e-011 7.20928e-028   
     length 1.46647   
     axis -5.52449e-016 -90 -90   XYZ
    dof ry
    limits (-180.0 0.0)
  end
  begin
     id 28
     name rhand
     direction -1 -4.48971e-011 1.44186e-027   
     length 0.831748   
     axis -9.20027e-016 -90 -90   XYZ
    dof rx rz
    limits (-90.0 90.0)
           (-45.0 45.0)
  end
  begin
     id 29
     name rfingers
     direction -1 -4.48961e-011 2.88371e-027   
     length 0.670577   
     axis -1.84005e-015 -90 -90   XYZ
    dof rx
    limits (0.0 90.0)
  end
  begin
     id 30
     name rthumb
     direction -0.707107 -6.34929e-011 0.707107   
     length 0.962818   
     axis -90 -45 -2.85299e-015   XYZ
    dof rx rz
    limits (-45.0 45.0)
           (-45.0 45.0)
  end
:hierarchy
  begin
    root lhipjoint rhipjoint lowerback
    lhipjoint lfemur
    lfemur ltibia
    ltibia lfoot
    lfoot ltoes
    rhipjoint rfemur
    rfemur rtibia
    rtibia rfoot
    rfoot rtoes
    lowerback upperback
    upperback thorax
    thorax lowerneck lclavicle rclavicle
    lowerneck upperneck
    upperneck head
    lclavicle lhumerus
    lhumerus lradius
    lradius lwrist
    lwrist lhand lthumb
    lhand lfingers
    rclavicle rhumerus
    rhumerus rradius
    rradius rwrist
    rwrist rhand rthumb
    rhand rfingers
  end

#!OML:ASF E:\id_vita\Project 1\Capture day 1\Session 1\Female.ASF
:FULLY-SPECIFIED
:DEGREES
606
root -4.38522 12.9833 -5.26376 -152.933 -85.7275 211.821
lowerback 14.7428 1.22481 -3.99185
upperback 2.88392 0.926878 0.927988
thorax -5.28579 0.467894 3.07017
lowerneck -11.2365 3.48143 -0.727103
upperneck -32.7463 2.52265 -1.7847
head -8.5089 0.357961 -0.41744
rclavicle 3.37934e-014 3.78685e-014
rhumerus 0.403699 22.4832 -102.365
rradius 82.1701
rwrist -14.7837
rhand -34.0523 -11.3413
rfingers 7.12502
rthumb -7.23005 -41.1977
lclavicle 3.37934e-014 3.78685e-014
lhumerus 59.3807 24.7429 162.681
lradius 6.81099
lwrist -93.9321
lhand -22.0233 22.4349
lfingers 7.12502
lthumb 4.38632 52.3694
rfemur -105.547 8.56873 65.3895
rtibia 62.9331
rfoot -13.6626 -20.4761
rtoes 11.3029
lfemur -86.2944 15.4328 -39.1525
ltibia 98.583
lfoot -4.67606 -6.85693
ltoes 6.19799
607
root -4.31119 12.968 -5.27071 -156.377 -85.9525 215.295
lowerback 14.5601 1.20023 -3.90711
upperback 2.83535 0.919231 0.943082
thorax -5.23574 0.464401 3.04025
lowerneck -10.9761 3.41888 -0.622668
upperneck -32.8542 2.4694 -1.64369
head -8.59016 0.312266 -0.388203
rclavicle 1.80894e-014 2.56432e-014
rhumerus 0.283206 22.4442 -102.531
rradius 82.3606
rwrist -14.7211
rhand -34.1721 -11.7263
rfingers 7.12502
rthumb -7.34568 -41.5788
lclavicle 1.80894e-014 2.56432e-014
lhumerus 58.857 24.2004 161.47
lradius 6.64574
lwrist -92.6521
lhand -22.9131 22.2168
lfingers 7.12502
lthumb 3.52705 52.1674
rfemur -105.715 8.76638 65.7093
rtibia 62.7865
rfoot -13.5727 -20.2848
rtoes 11.2205
lfemur -86.212 15.1955 -38.8459
ltibia 98.5267
lfoot -6.15689 -6.20647
ltoes 6.53459
608
root -4.24377 12.9649 -5.27912 -161.392 -86.3041 220.066
lowerback 14.6974 1.16109 -3.67633
upperback 2.97847 0.895171 0.987866
thorax -5.15459 0.442796 2.96104
lowerneck -11.1165 3.2204 -0.971781
upperneck -32.9768 2.31365 -1.08811
head -8.62983 0.220403 -0.125989
rclavicle 2.10712e-014 3.8266e-015
rhumerus 0.507011 22.4471 -102.503
rradius 82.4308
rwrist -14.6819
rhand -34.47 -11.7227
rfingers 7.12502
rthumb -7.6332 -41.565
lclavicle 2.10712e-014 3.8266e-015
lhumerus 58.3662 23.4191 160.294
lradius 6.51595
lwrist -91.21
lhand -23.6019 21.9798
lfingers 7.12502
lthumb 2.86179 51.9404
rfemur -105.722 8.61256 66.2148
rtibia 62.6364
rfoot -13.6831 -19.9854
rtoes 11.8018
lfemur -85.7811 14.9553 -38.3305
ltibia 98.3838
lfoot -7.63746 -5.63495
ltoes 5.14712
609
root -4.17436 12.9454 -5.28401 -162.995 -86.6885 221.607
lowerback 14.634 1.14561 -3.64004
upperback 3.14275 0.881051 1.02576
thorax -4.945 0.426733 2.98405
lowerneck -11.7343 2.98698 -1.43937
upperneck -32.875 2.08578 -0.624807
head -8.51011 0.112688 0.131295
rclavicle 4.91992e-014 6.86304e-014
rhumerus 0.921735 22.3343 -102.254
rradius 82.5161
rwrist -14.5424
rhand -34.4966 -11.9329
rfingers 7.12502
rthumb -7.65887 -41.7742
lclavicle 4.91992e-014 6.86304e-014
lhumerus 57.8617 22.4581 159.274
lradius 6.44628
lwrist -90.001
lhand -23.7738 21.9831
lfingers 7.12502
lthumb 2.69578 51.9458
rfemur -106.077 8.56707 66.3512
rtibia 62.5145
rfoot -13.6559 -19.838
rtoes 12.4038
lfemur -85.4939 14.4149 -38.0831
ltibia 98.2501
lfoot -9.24363 -4.84756
ltoes 3.34353
610
root -4.10659 12.9337 -5.29374 -162.854 -86.8969 221.243
lowerback 14.8098 1.09018 -3.8291
upperback 3.04799 0.771014 0.946505
thorax -5.13358 0.381842 3.02739
lowerneck -11.5258 3.03539 -1.10491
upperneck -32.7568 2.12975 -0.769884
head -8.4905 0.122224 0.0174183
rclavicle -6.30147e-014 -4.07509e-014
rhumerus 0.612848 22.3034 -102.611
rradius 82.6817
rwrist -14.3248
rhand -34.4029 -12.4074
rfingers 7.12502
rthumb -7.56851 -42.252
lclavicle -6.30147e-014 -4.07509e-014
lhumerus 57.3902 22.0726 158.019
lradius 6.44387
lwrist -89.1253
lhand -23.5246 22.0769
lfingers 7.12502
lthumb 2.93649 52.0364
rfemur -106.212 8.51716 66.2464
rtibia 62.3891
rfoot -13.4941 -19.8101
rtoes 12.5036
lfemur -84.9584 14.0716 -37.9745
ltibia 98.0503
lfoot -10.6796 -3.92968
ltoes 2.40643
611
root -4.04061 12.9276 -5.29958 -165.862 -87.1837 224.04
lowerback 14.9556 1.03399 -3.80818
upperback 3.05217 0.69555 0.966951
thorax -5.20255 0.34592 3.05133
lowerneck -11.6173 3.04962 -0.835879
upperneck -32.6014 2.10422 -0.940502
head -8.41158 0.098279 -0.0879022
rclavicle 2.50469e-014 3.4837e-014
rhumerus 0.523913 22.3574 -102.737
rradius 82.8399
rwrist -14.2463
rhand -34.4073 -12.8607
rfingers 7.12502
rthumb -7.57273 -42.7051
lclavicle 2.50469e-014 3.4837e-014
lhumerus 56.9871 21.5172 156.914
lradius 6.50639
lwrist -88.4178
lhand -22.9771 22.1265
lfingers 7.12502
lthumb 3.46524 52.0781
rfemur -106.319 8.36857 66.5436
rtibia 62.2407
rfoot -13.2834 -19.606
rtoes 12.1326
lfemur -84.4441 13.7109 -37.6901
ltibia 97.8995
lfoot -11.8201 -2.9899
ltoes 2.01536
612
root -3.97732 12.9146 -5.2968 -169.263 -87.5943 227.338
lowerback 15.001 0.95088 -3.62941
upperback 3.08364 0.613989 0.995843
thorax -5.1859 0.30265 2.99607
lowerneck -11.5595 2.92744 -0.861699
upperneck -32.687 1.95736 -0.799899
head -8.45441 0.0158614 -0.0297293
rclavicle -3.75703e-014 -2.08724e-014
rhumerus 0.427427 22.3264 -102.746
rradius 83.0748
rwrist -14.0666
rhand -34.4121 -13.135
rfingers 7.12502
rthumb -7.57737 -42.9793
lclavicle -3.75703e-014 -2.08724e-014
lhumerus 56.5536 20.7662 155.936
lradius 6.57885
lwrist -87.7993
lhand -22.5106 22.1038
lfingers 7.12502
lthumb 3.91568 52.0475
rfemur -106.614 8.15562 66.9744
rtibia 62.0934
rfoot -12.8014 -19.402
rtoes 10.2898
lfemur -84.046 13.1055 -37.3939
ltibia 97.7855
lfoot -13.0087 -2.05749
ltoes 1.82466
613
root -3.89713 12.8832 -5.30981 -175.254 -87.7736 233.678
lowerback 14.6148 0.916169 -3.6026
upperback 2.92556 0.594288 0.976794
thorax -5.14062 0.298449 2.96447
lowerneck -11.0876 3.01603 -0.407615
upperneck -32.9149 2.00909 -1.08972
head -8.60141 0.0175357 -0.21551
rclavicle 5.56597e-015 2.36554e-014
rhumerus -0.114807 22.1759 -103.159
rradius 83.6102
rwrist -13.6052
rhand -34.274 -13.8214
rfingers 7.12502
rthumb -7.44408 -43.6705
lclavicle 5.56597e-015 2.36554e-014
lhumerus 56.1323 20.0281 154.821
lradius 6.55098
lwrist -87.2293
lhand -22.1337 22.0339
lfingers 7.12502
lthumb 4.27967 51.9706
rfemur -107.062 8.63481 67.3255
rtibia 61.9383
rfoot -12.185 -19.3318
rtoes 9.20867
lfemur -84.4883 12.7075 -37.1735
ltibia 97.8751
lfoot -14.2239 -1.23746
ltoes 1.26752
614
root -3.83514 12.8741 -5.31143 -182.878 -88.1135 241.039
lowerback 14.8497 0.823537 -3.44042
upperback 2.94463 0.488869 0.995212
thorax -5.2394 0.245632 2.91192
lowerneck -11.0166 3.02195 -0.221074
upperneck -32.921 1.99543 -1.17234
head -8.6106 -0.000829214 -0.277291
rclavicle 1.41137e-014 -7.35503e-015
rhumerus -0.251487 22.1141 -103.215
rradius 84.0533
rwrist -13.3211
rhand -33.844 -15.3263
rfingers 7.12502
rthumb -7.02893 -45.1896
lclavicle 1.41137e-014 -7.35503e-015
lhumerus 55.7763 19.3564 153.792
lradius 6.53292
lwrist -86.634
lhand -22.2592 21.7458
lfingers 7.12502
lthumb 4.15848 51.685
rfemur -107.221 8.36225 67.6002
rtibia 61.8399
rfoot -12.0531 -19.0745
rtoes 10.065
lfemur -84.0536 12.2429 -36.8414
ltibia 97.8261
lfoot -15.2092 -0.4046
ltoes 1.29608
615
root -3.77028 12.8681 -5.31685 -190.847 -88.3432 248.921
lowerback 14.921 0.779972 -3.45128
upperback 2.94353 0.432338 1.06949
thorax -5.2757 0.219499 3.00784
lowerneck -11.2175 2.85209 -0.269283
upperneck -32.8595 1.77496 -1.00848
head -8.5601 -0.121216 -0.201785
rclavicle -1.96797e-014 -4.14963e-014
rhumerus -0.198824 22.1502 -103.055
rradius 84.2535
rwrist -13.3249
rhand -33.5439 -16.0219
rfingers 7.12502
rthumb -6.73924 -45.8947
lclavicle -1.96797e-014 -4.14963e-014
lhumerus 55.4347 18.693 152.854
lradius 6.53029
lwrist -85.7226
lhand -22.9171 21.6728
lfingers 7.12502
lthumb 3.52315 51.6234
rfemur -107.411 8.27938 67.8384
rtibia 61.7017
rfoot -12.0212 -18.7569
rtoes 10.5688
lfemur -83.947 11.8164 -36.5792
ltibia 97.8294
lfoot -15.9765 0.197881
ltoes 0.943631
616
root -3.69507 12.8445 -5.31899 -198.768 -88.5358 257.229
lowerback 14.5478 0.696617 -3.37212
upperback 2.79285 0.354054 1.03356
thorax -5.22473 0.185273 2.93883
lowerneck -11.4529 2.63704 0.0995308
upperneck -32.7917 1.42179 -0.996132
head -8.49504 -0.347514 -0.246866
rclavicle 1.37161e-014 4.26393e-014
rhumerus -0.243943 22.1163 -103.197
rradius 84.2909
rwrist -13.3957
rhand -33.5611 -15.7347
rfingers 7.12502
rthumb -6.75587 -45.6069
lclavicle 1.37161e-014 4.26393e-014
lhumerus 55.1308 17.9388 151.839
lradius 6.47695
lwrist -84.822
lhand -22.665 22.1161
lfingers 7.12502
lthumb 3.76658 52.0626
rfemur -108.029 8.63165 67.9569
rtibia 61.5508
rfoot -12.0034 -18.3502
rtoes 12.251
lfemur -84.5454 11.1851 -36.4672
ltibia 97.95
lfoot -16.7611 0.833125
ltoes -0.283617
617
root -3.63055 12.8465 -5.32933 -205.208 -88.7274 263.546
lowerback 14.6483 0.661521 -3.45295
upperback 2.81035 0.286555 0.942845
thorax -5.25585 0.153142 2.90163
lowerneck -11.6268 2.52951 0.859539
upperneck -32.8067 1.14717 -1.20331
head -8.4655 -0.567869 -0.439655
rclavicle 1.13307e-014 4.65156e-014
rhumerus -0.155678 22.0334 -103.363
rradius 84.3167
rwrist -13.4729
rhand -33.6479 -15.4328
rfingers 7.12502
rthumb -6.83968 -45.3023
lclavicle 1.13307e-014 4.65156e-014
lhumerus 54.8232 17.1207 150.747
lradius 6.51464
lwrist -84.1639
lhand -21.8861 22.4635
lfingers 7.12502
lthumb 4.51877 52.3953
rfemur -108.15 8.5639 67.9766
rtibia 61.3226
rfoot -11.8839 -18.1197
rtoes 13.9682
lfemur -84.4513 10.8045 -36.2819
ltibia 97.9539
lfoot -17.5351 1.36641
ltoes -1.33194
618
root -3.56384 12.8286 -5.32931 -218.12 -88.9881 276.621
lowerback 14.3903 0.549401 -3.42995
upperback 2.78108 0.153088 0.892469
thorax -5.13538 0.0873195 2.85908
lowerneck -11.3571 2.26644 -1.14606
upperneck -32.9966 1.3369 0.580016
head -8.61424 -0.373156 0.523169
rclavicle 5.36719e-015 2.20154e-014
rhumerus 0.0302363 22.0563 -103.346
rradius 84.2877
rwrist -13.6676
rhand -33.7691 -15.2212
rfingers 7.12502
rthumb -6.95664 -45.0869
lclavicle 5.36719e-015 2.20154e-014
lhumerus 54.5062 16.3535 149.742
lradius 6.61048
lwrist -83.3002
lhand -21.8634 22.4423
lfingers 7.12502
lthumb 4.54065 52.3737
rfemur -108.623 8.65218 67.9892
rtibia 61.0571
rfoot -11.3515 -18.0109
rtoes 13.7031
lfemur -84.7689 10.0726 -36.1042
ltibia 98.0579
lfoot -17.9111 1.86538
ltoes -2.45132
619
root -3.50731 12.8452 -5.3376 -228.945 -88.9123 286.998
lowerback 14.767 0.593839 -3.49075
upperback 2.88963 0.185776 0.93603
thorax -5.22908 0.101773 2.93526
lowerneck -10.9338 2.20937 -1.10907
upperneck -33.3441 1.28974 0.743569
head -8.8112 -0.421318 0.57833
rclavicle 3.85642e-014 3.11595e-014
rhumerus 0.0914147 22.1223 -103.217
rradius 84.3904
rwrist -13.95
rhand -33.8425 -15.169
rfingers 7.12502
rthumb -7.02751 -45.0323
lclavicle 3.85642e-014 3.11595e-014
lhumerus 54.1945 15.6454 148.798
lradius 6.6968
lwrist -82.3599
lhand -22.0957 22.3562
lfingers 7.12502
lthumb 4.3164 52.2922
rfemur -108.312 8.35325 68.1496
rtibia 60.7553
rfoot -11.2869 -17.7417
rtoes 14.5526
lfemur -84.3827 9.95046 -35.696
ltibia 98.0543
lfoot -18.3966 2.15802
ltoes -3.55544
